<svg height="64" viewBox="0 0 141 64" width="141" xmlns="http://www.w3.org/2000/svg" xmlns:xlink="http://www.w3.org/1999/xlink"><linearGradient id="a" x1="0%" x2="100%" y1="50%" y2="50%"><stop offset="0" stop-color="#000030"/><stop offset=".251328125" stop-color="#203060"/><stop offset=".519003906" stop-color="#405090"/><stop offset=".751699219" stop-color="#f03090"/><stop offset="1" stop-color="#f00040"/></linearGradient><path d="m108.296614 0v50.5264721h8.394934v-16.1685899l13.432607 16.1685899h10.912882l-16.78987-20.2105888h-7.555619v-30.3158833zm-107.45729821 8.42147479c0 2.79012601 2.25555011 5.05264721 5.03707934 5.05264721 2.78212155 0 5.03707937-2.2625212 5.03707937-5.05264721 0-2.79072013-2.25495782-5.05264721-5.03707937-5.05264721-2.78152923 0-5.03707934 2.26192708-5.03707934 5.05264721zm123.40785121 12.63102391c0 2.7907201 2.254958 5.0532413 5.03708 5.0532413 2.781529 0 5.036487-2.2625212 5.036487-5.0532413 0-2.790126-2.254958-5.0526472-5.036487-5.0526472-2.782122 0-5.03708 2.2625212-5.03708 5.0526472zm-54.5679643 12.631618c0 9.7672234 7.8932408 17.6842653 17.6291854 17.6842653 5.4434101 0 10.3081247-2.4752268 13.5427779-6.3645293l-6.4497599-5.3901241c-1.6940318 2.0367444-4.2415951 3.3337727-7.093018 3.3337727-3.9140428 0-7.2505748-2.4467076-8.5951385-5.8951512h25.9021024c.209681-1.0908584.322814-2.2155834.322814-3.3682334 0-9.7666292-7.8926486-17.6842652-17.6297779-17.6842652-9.7359446 0-17.6291854 7.917636-17.6291854 17.6842652zm17.6291854-9.2627904c3.9146352 0 7.2517595 2.4461134 8.5963232 5.894557h-17.1914617c1.3445637-3.4484436 4.6810957-5.894557 8.5951385-5.894557zm-26.8640283-3.3688276c0 2.7907201 2.2549578 5.0532413 5.0370794 5.0532413 2.7821215 0 5.0376716-2.2625212 5.0376716-5.0532413 0-2.790126-2.2555501-5.0526472-5.0376716-5.0526472-2.7821216 0-5.0370794 2.2625212-5.0370794 5.0526472zm-10.0741587 29.4739734h8.3949348v-33.6841167h-8.3949348zm-13.4314218-33.6841167v20.2099947c0 3.251186-3.0137182 5.8951512-6.7163032 5.8951512-3.7037697 0-6.7163033-2.6439652-6.7163033-5.8951512v-20.2099947h-8.3955271v20.2099947c0 7.8938701 6.779089 14.3154377 15.1118304 14.3154377 8.332149 0 15.1106457-6.4215676 15.1106457-14.3154377v-20.2099947zm-35.25955541 0v37.0523502l-1.67922389 10.1052944h8.3949348l1.6786316-10.1052944v-37.0523502z" fill="url(#a)" fill-rule="evenodd"/></svg>