<?xml version="1.0" encoding="UTF-8"?>
<svg id="Layer_1" data-name="Layer 1" xmlns="http://www.w3.org/2000/svg" viewBox="0 0 41 19">
  <defs>
    <style>
      .cls-1 {
        fill: #000;
        stroke-width: 0px;
      }
    </style>
  </defs>
  <g>
    <path class="cls-1" d="M11.56104,14.16895c.2207-.16992.52686-.35645.83301-.52734v-5.33691l-.79932.0166c-.0166,0-.10156-.33984-.06787-.37402.15283-.15234.86719-.66211.86719-.66211v-.91797c0-1.53027,1.00293-2.87305,2.36279-3.45117,1.12158,0,2.07373.37402,2.75342.95215.08496.06738-.83301,1.07031-.84961,1.07031-.68018-.66211-1.41113-1.27441-1.41113-1.27441-1.30859,0-1.42773,1.87012-1.42773,2.83887v.90039l2.02295.16992.06787.13672c-.05127.2041-.15283.4248-.22119.56055l-1.86963.0166v5.50781c.11914.03418,1.15576.2207,1.63184.30566l.05078.11914c0,.10254-.16992.4082-.20361.4082-.62891-.0166-1.30908-.05078-1.95508-.05078s-1.24072.0166-1.69971.05078c-.05127,0-.13623-.44238-.08496-.45898Z"/>
    <path class="cls-1" d="M16.13379,17.8916l2.77051-3.11035c-.01709-.52734-1.81885-4.62402-2.27783-6.68066l-.646-.15332c-.06787,0-.11865-.56055-.03369-.56055h.20361c.71387.03418,1.49609-.0166,2.00586-.05078.03418,0,.08496.33984.15332.83301.27197,1.49512.84961,3.26367,1.47852,4.84375.86719-1.85254,1.46191-3.79004,1.63184-4.82715l-.96875-.2207c-.06787,0,.05078-.56152.11914-.56152.40771.05176.81592.05176,1.20654.03418.35693-.0166.68018-.05078.91797-.08496.08496,0,.22119.50977.16992.66309-1.80176,3.77344-3.34863,7.7168-5.5415,10.70898-.03369.06836-1.25781-.73145-1.18945-.83301Z"/>
    <path class="cls-1" d="M23.68115,14.16895c.22119-.16992.52686-.35645.83301-.52734v-5.13281l-1.03662.10156c-.05127,0-.13623-.54395-.06836-.56055.81592-.2041,1.85303-.52734,2.56689-.86719l.27197.25488c-.13623.35742-.28906.67969-.32324,1.5127l.17041.05176c.44189-.56152,1.49561-1.51367,2.20947-1.7002.11914-.03418.23828-.05078.35693-.05078.2041.0166.78223.2041.78223.2373,0,.13672-.39111,1.7168-.45898,1.7168-.08496,0-1.35986-.40723-1.61475-.40723-.34033,0-1.42822.67969-1.44531,1.9209l.01709,3.09375c.13623.0332,1.10498.16992,1.52979.2373l.06836.11914c0,.08496-.18701.45898-.22119.45898-.62891-.0166-1.2749-.05078-1.90381-.05078-.61182,0-1.18994.0166-1.64893.05078-.05078,0-.13574-.44238-.08496-.45898Z"/>
    <path class="cls-1" d="M30.22607,14.16895c.2207-.16992.52686-.35645.83252-.52734v-5.13281l-1.01953.10156c-.06836,0-.15332-.54395-.08496-.56055.81592-.2041,1.85254-.52734,2.5835-.86719l.27197.27246c-.18701.52637-.30566,1.10449-.32275,3.38184v2.95801c.23779.05078.81592.1875,1.0708.28906l.06787.11914c0,.06738-.16992.4248-.2041.4248-.62891-.0166-1.17285-.03418-1.68262-.03418-.49316,0-.96875.01758-1.42773.03418-.03418,0-.11914-.44238-.08496-.45898ZM30.75293,4.83691l1.52979-.78223s.27197.81641.44189,1.47949c0,.0166-.84961.52637-1.15576.62891-.33984-.4082-.81592-1.32617-.81592-1.32617Z"/>
    <path class="cls-1" d="M34.45898,14.57715c-.13574-.06836.08496-1.54688.23779-1.47949,0,0,1.80225.71484,2.89014.83301.11816,0,.56055-.57715.56055-1.07031,0-1.47949-3.6543-1.37695-3.6543-3.62109.37402-1.27441,1.66504-1.9209,2.43066-2.05664.74805,0,1.68262.16992,2.24414.30566.16992.06836-.22168,1.46191-.32324,1.41113,0,0-1.66602-.90039-2.125-.90039-.16992,0-.79883.4248-.79883.86621.06738,1.32617,3.46777,1.32617,3.46777,3.46777,0,1.10547-1.56445,2.48145-2.29492,2.48145s-2.19287-.13574-2.63477-.2373Z"/>
  </g>
  <path class="cls-1" d="M2,8.11343l5.68389-2.96223s1.33021,3.26512,1.87422,5.92555c0,0-2.96277,1.87422-4.4745,2.47891-1.51173-2.23725-3.0836-5.44223-3.0836-5.44223Z"/>
</svg>